<svg width="135" height="135" viewBox="0 0 135 135" fill="none" xmlns="http://www.w3.org/2000/svg">
<path d="M95.4167 8.875H22.8333C15.1244 8.875 8.875 15.1244 8.875 22.8333V95.4167C8.875 103.126 15.1244 109.375 22.8333 109.375H95.4167C103.126 109.375 109.375 103.126 109.375 95.4167V22.8333C109.375 15.1244 103.126 8.875 95.4167 8.875Z" fill="#FAFAFA" stroke="#D0EEFB"/>
<path d="M34 42.375C33.2597 42.3748 32.5497 42.0806 32.0263 41.557L26.443 35.9737C25.9344 35.4472 25.653 34.742 25.6594 34.01C25.6658 33.2781 25.9594 32.5779 26.477 32.0603C26.9946 31.5427 27.6947 31.2491 28.4267 31.2427C29.1587 31.2364 29.8639 31.5178 30.3904 32.0263L34.2066 35.8425L46.2107 26.2364C46.4971 26.0072 46.8257 25.8367 47.1779 25.7346C47.5301 25.6325 47.899 25.6008 48.2635 25.6412C48.628 25.6816 48.9809 25.7935 49.3022 25.9703C49.6234 26.1472 49.9067 26.3855 50.1358 26.6719C50.365 26.9582 50.5354 27.2868 50.6376 27.639C50.7397 27.9913 50.7714 28.3601 50.731 28.7246C50.6906 29.0891 50.5787 29.442 50.4019 29.7633C50.225 30.0845 49.9867 30.3678 49.7003 30.597L35.742 41.7636C35.2475 42.1591 34.6332 42.3747 34 42.375Z" fill="#1B6EF7"/>
<path d="M89.8334 36.7917H64.7084C63.968 36.7917 63.2579 36.4976 62.7343 35.974C62.2108 35.4505 61.9167 34.7404 61.9167 34C61.9167 33.2596 62.2108 32.5495 62.7343 32.026C63.2579 31.5025 63.968 31.2083 64.7084 31.2083H89.8334C90.5738 31.2083 91.2838 31.5025 91.8074 32.026C92.3309 32.5495 92.625 33.2596 92.625 34C92.625 34.7404 92.3309 35.4505 91.8074 35.974C91.2838 36.4976 90.5738 36.7917 89.8334 36.7917Z" fill="#2D2D2D"/>
<path d="M34 67.5C33.2597 67.4998 32.5497 67.2056 32.0263 66.682L26.443 61.0987C25.9344 60.5722 25.653 59.867 25.6594 59.1351C25.6658 58.4031 25.9594 57.7029 26.477 57.1853C26.9946 56.6677 27.6947 56.3741 28.4267 56.3677C29.1587 56.3614 29.8639 56.6428 30.3904 57.1513L34.2066 60.9675L46.2107 51.3614C46.789 50.8986 47.5274 50.6845 48.2635 50.7662C48.9996 50.8479 49.6731 51.2186 50.1358 51.7969C50.5986 52.3751 50.8127 53.1135 50.731 53.8496C50.6493 54.5857 50.2786 55.2592 49.7003 55.722L35.742 66.8886C35.2475 67.2841 34.6332 67.4997 34 67.5Z" fill="#F8698B"/>
<path d="M89.8334 61.9166H64.7084C63.968 61.9166 63.2579 61.6225 62.7343 61.099C62.2108 60.5754 61.9167 59.8654 61.9167 59.125C61.9167 58.3846 62.2108 57.6745 62.7343 57.151C63.2579 56.6274 63.968 56.3333 64.7084 56.3333H89.8334C90.5738 56.3333 91.2838 56.6274 91.8074 57.151C92.3309 57.6745 92.625 58.3846 92.625 59.125C92.625 59.8654 92.3309 60.5754 91.8074 61.099C91.2838 61.6225 90.5738 61.9166 89.8334 61.9166Z" fill="#2D2D2D"/>
<path d="M34 92.625C33.2597 92.6248 32.5497 92.3306 32.0263 91.807L26.443 86.2237C25.9344 85.6972 25.653 84.992 25.6594 84.2601C25.6658 83.5281 25.9594 82.8279 26.477 82.3103C26.9946 81.7927 27.6947 81.4991 28.4267 81.4927C29.1587 81.4864 29.8639 81.7678 30.3904 82.2763L34.2066 86.0925L46.2107 76.4864C46.789 76.0236 47.5274 75.8095 48.2635 75.8912C48.9996 75.9729 49.6731 76.3436 50.1358 76.9219C50.5986 77.5001 50.8127 78.2385 50.731 78.9746C50.6493 79.7107 50.2786 80.3842 49.7003 80.847L35.742 92.0136C35.2475 92.4091 34.6332 92.6247 34 92.625Z" fill="#FACC15"/>
<path d="M89.8334 87.0417H64.7084C63.968 87.0417 63.2579 86.7476 62.7343 86.224C62.2108 85.7005 61.9167 84.9904 61.9167 84.25C61.9167 83.5096 62.2108 82.7995 62.7343 82.276C63.2579 81.7525 63.968 81.4583 64.7084 81.4583H89.8334C90.5738 81.4583 91.2838 81.7525 91.8074 82.276C92.3309 82.7995 92.625 83.5096 92.625 84.25C92.625 84.9904 92.3309 85.7005 91.8074 86.224C91.2838 86.7476 90.5738 87.0417 89.8334 87.0417Z" fill="#2D2D2D"/>
<path d="M98.2084 126.125C113.626 126.125 126.125 113.626 126.125 98.2083C126.125 82.7904 113.626 70.2917 98.2084 70.2917C82.7904 70.2917 70.2917 82.7904 70.2917 98.2083C70.2917 113.626 82.7904 126.125 98.2084 126.125Z" fill="#1B6EF7"/>
<path d="M95.4167 109.375C94.6763 109.375 93.9664 109.081 93.443 108.557L85.068 100.182C84.5594 99.6555 84.278 98.9503 84.2844 98.2184C84.2908 97.4864 84.5844 96.7862 85.102 96.2686C85.6196 95.751 86.3197 95.4574 87.0517 95.4511C87.7837 95.4447 88.4889 95.7261 89.0154 96.2346L95.4167 102.636L107.401 90.6513C107.928 90.1427 108.633 89.8614 109.365 89.8677C110.097 89.8741 110.797 90.1677 111.315 90.6853C111.832 91.2029 112.126 91.9031 112.132 92.635C112.139 93.367 111.857 94.0722 111.349 94.5987L97.3904 108.557C96.867 109.081 96.157 109.375 95.4167 109.375Z" fill="white"/>
</svg>
