<svg width="71" height="70" viewBox="0 0 71 70" fill="none" xmlns="http://www.w3.org/2000/svg">
<path d="M35.7734 4.375C36.0635 4.37499 36.3417 4.25975 36.5468 4.05463C36.7519 3.84952 36.8672 3.57133 36.8672 3.28125V1.09375C36.8672 0.803669 36.752 0.52547 36.5468 0.320352C36.3417 0.115234 36.0635 0 35.7734 0C35.4834 0 35.2052 0.115234 35 0.320352C34.7949 0.52547 34.6797 0.803669 34.6797 1.09375V3.28125C34.6797 3.57133 34.7949 3.84952 35.0001 4.05463C35.2052 4.25975 35.4834 4.37499 35.7734 4.375Z" fill="#1B6EF7"/>
<path d="M29.0935 5.05536C29.2225 5.31379 29.4472 5.51173 29.7198 5.60712C29.9925 5.7025 30.2916 5.68782 30.5536 5.56619C30.683 5.50388 30.7988 5.41669 30.8945 5.3096C30.9902 5.2025 31.0639 5.07761 31.1113 4.94204C31.1587 4.80647 31.1789 4.66289 31.1708 4.5195C31.1628 4.37611 31.1265 4.23572 31.0641 4.10635L30.1151 2.13567C29.9893 1.87434 29.7648 1.67371 29.491 1.57791C29.2172 1.48211 28.9166 1.499 28.6553 1.62485C28.3939 1.75069 28.1933 1.9752 28.0975 2.24898C28.0017 2.52275 28.0186 2.82337 28.1444 3.0847L29.0935 5.05536Z" fill="#1B6EF7"/>
<path d="M23.1195 7.71447L24.8301 9.07818C25.0582 9.25577 25.3467 9.33704 25.634 9.3046C25.9212 9.27216 26.1844 9.1286 26.3671 8.90461C26.5479 8.67783 26.6313 8.38851 26.5988 8.10028C26.5664 7.81204 26.4208 7.5485 26.1941 7.36759L24.4835 6.00388C24.2566 5.823 23.9672 5.73965 23.679 5.77215C23.3907 5.80465 23.1271 5.95034 22.9462 6.17718C22.7653 6.40402 22.682 6.69342 22.7145 6.98172C22.747 7.27001 22.8927 7.53359 23.1195 7.71447Z" fill="#1B6EF7"/>
<path d="M20.6014 14.0652L22.7339 14.552C22.8742 14.5847 23.0196 14.5894 23.1617 14.5658C23.3038 14.5421 23.4398 14.4907 23.5619 14.4144C23.6841 14.338 23.79 14.2383 23.8735 14.1209C23.957 14.0035 24.0165 13.8708 24.0486 13.7304C24.0806 13.59 24.0846 13.4446 24.0604 13.3026C24.0361 13.1606 23.984 13.0248 23.9071 12.903C23.8302 12.7812 23.73 12.6758 23.6123 12.5928C23.4945 12.5098 23.3615 12.451 23.221 12.4195L21.0885 11.9327C20.9483 11.9003 20.8031 11.8959 20.6612 11.9197C20.5193 11.9434 20.3835 11.995 20.2616 12.0714C20.1396 12.1477 20.034 12.2474 19.9506 12.3647C19.8672 12.4819 19.8078 12.6145 19.7758 12.7548C19.7438 12.895 19.7397 13.0403 19.7639 13.1821C19.7881 13.3239 19.84 13.4596 19.9167 13.5813C19.9934 13.703 20.0933 13.8084 20.2108 13.8915C20.3283 13.9745 20.4611 14.0335 20.6014 14.0652Z" fill="#1B6EF7"/>
<path d="M47.503 13.7293C47.575 14.0077 47.7509 14.2481 47.9945 14.4011C48.238 14.554 48.5309 14.608 48.813 14.552L50.9455 14.0652C51.0859 14.0336 51.2186 13.9745 51.3361 13.8915C51.4536 13.8084 51.5535 13.703 51.6302 13.5813C51.7069 13.4596 51.7589 13.3239 51.783 13.1821C51.8072 13.0403 51.8032 12.895 51.7711 12.7548C51.7391 12.6145 51.6797 12.4819 51.5963 12.3647C51.513 12.2474 51.4073 12.1477 51.2854 12.0714C51.1634 11.995 51.0276 11.9434 50.8857 11.9197C50.7438 11.8959 50.5986 11.9003 50.4585 11.9327L48.326 12.4195C48.0432 12.4842 47.7977 12.6585 47.6434 12.9041C47.4891 13.1497 47.4386 13.4465 47.503 13.7293Z" fill="#1B6EF7"/>
<path d="M46.7168 9.07818L48.4274 7.71447C48.6542 7.53359 48.7999 7.27001 48.8324 6.98172C48.8649 6.69342 48.7815 6.40402 48.6007 6.17718C48.4198 5.95034 48.1562 5.80465 47.8679 5.77215C47.5796 5.73965 47.2902 5.823 47.0634 6.00388L45.3528 7.36759C45.1261 7.54849 44.9805 7.81203 44.948 8.10026C44.9156 8.38848 44.9989 8.6778 45.1798 8.90458C45.3678 9.12057 45.6299 9.25822 45.9145 9.29035C46.1991 9.32249 46.4853 9.24679 46.7168 9.07818Z" fill="#1B6EF7"/>
<path d="M40.9933 5.5662C41.2552 5.68851 41.5546 5.70355 41.8274 5.6081C42.1002 5.51265 42.3249 5.31428 42.4534 5.05537L43.4025 3.0847C43.4649 2.9553 43.5012 2.81486 43.5093 2.67143C43.5174 2.52799 43.4972 2.38436 43.4497 2.24875C43.4023 2.11313 43.3286 1.98819 43.2329 1.88105C43.1372 1.77392 43.0213 1.68669 42.8919 1.62436C42.7624 1.56202 42.622 1.5258 42.4786 1.51776C42.3351 1.50973 42.1915 1.53003 42.0559 1.57752C41.9203 1.625 41.7954 1.69874 41.6883 1.79451C41.5812 1.89028 41.4941 2.00621 41.4318 2.13568L40.4828 4.10635C40.4204 4.23573 40.3842 4.37612 40.3761 4.51951C40.368 4.6629 40.3882 4.80648 40.4356 4.94205C40.483 5.07761 40.5567 5.20251 40.6524 5.3096C40.7481 5.4167 40.8639 5.50389 40.9933 5.5662Z" fill="#1B6EF7"/>
<path d="M39.5471 30.9003V30.7139C39.8473 30.5195 40.1006 30.2608 40.2887 29.9566C40.4769 29.6524 40.5951 29.3102 40.635 28.9547C40.7117 26.9482 41.477 25.0293 42.8022 23.5207C44.3296 21.6355 45.8906 19.3131 45.8906 16.3817C45.8645 13.9276 44.9294 11.5703 43.2662 9.76557C41.6029 7.96085 39.3297 6.83683 36.8859 6.61081C36.1667 6.54838 35.4436 6.54615 34.724 6.60414C32.267 6.8135 29.9763 7.93143 28.2995 9.73949C26.6227 11.5476 25.6802 13.9159 25.6562 16.3817C25.6562 19.3294 27.3252 21.7815 28.9578 23.7914C30.2091 25.2217 30.9029 27.0552 30.9119 28.9555C30.9518 29.3109 31.0701 29.6529 31.2582 29.957C31.4464 30.261 31.6996 30.5196 31.9998 30.7139V30.9003C32.0029 31.6995 32.3229 32.4648 32.8896 33.0283C33.4563 33.5918 34.2234 33.9076 35.0226 33.9062H36.5243C37.3235 33.9076 38.0906 33.5918 38.6572 33.0283C39.2239 32.4648 39.5439 31.6995 39.5471 30.9003ZM37.9668 29.1315C37.7844 29.222 37.6309 29.3616 37.5237 29.5347C37.4164 29.7077 37.3596 29.9073 37.3596 30.1109V30.9003C37.3571 31.1195 37.2677 31.3287 37.1111 31.4822C36.9545 31.6356 36.7435 31.7207 36.5243 31.7187H35.0226C34.8034 31.7207 34.5924 31.6356 34.4358 31.4822C34.2792 31.3287 34.1899 31.1195 34.1873 30.9003V30.111C34.1873 29.9073 34.1305 29.7078 34.0232 29.5347C33.916 29.3617 33.7625 29.222 33.5801 29.1315C33.4003 29.0378 33.2363 28.9164 33.0941 28.7718C33.0514 26.4318 32.1886 24.1809 30.6561 22.412C29.1954 20.6141 27.8438 18.6391 27.8438 16.3817C27.8693 14.4588 28.6108 12.6145 29.9233 11.209C31.2359 9.8035 33.0252 8.93779 34.9419 8.78096C35.5121 8.73778 36.0847 8.73948 36.6546 8.78603C38.5609 8.956 40.3366 9.82655 41.6384 11.2294C42.9403 12.6323 43.6759 14.468 43.7031 16.3817C43.7031 18.6303 42.3883 20.5564 41.1028 22.1439C39.5036 23.9948 38.5706 26.3282 38.4528 28.7715C38.3112 28.9168 38.1471 29.0384 37.9668 29.1315Z" fill="#1B6EF7"/>
<path d="M37.5075 15.5889L35.7735 17.1304L34.0394 15.5889C33.9321 15.4931 33.807 15.4194 33.6712 15.372C33.5354 15.3247 33.3916 15.3046 33.248 15.3129C33.1044 15.3211 32.9639 15.3576 32.8344 15.4203C32.705 15.483 32.5892 15.5705 32.4936 15.678C32.398 15.7855 32.3246 15.9107 32.2775 16.0466C32.2304 16.1825 32.2105 16.3263 32.2191 16.4699C32.2277 16.6135 32.2644 16.7539 32.3273 16.8833C32.3902 17.0126 32.478 17.1282 32.5857 17.2236L34.6797 19.085V24.0625C34.6797 24.3526 34.7949 24.6308 35.0001 24.8359C35.2052 25.041 35.4834 25.1562 35.7735 25.1562C36.0635 25.1562 36.3417 25.041 36.5469 24.8359C36.752 24.6308 36.8672 24.3526 36.8672 24.0625V19.085L38.9612 17.2236C39.0689 17.1282 39.1567 17.0126 39.2196 16.8832C39.2825 16.7539 39.3193 16.6135 39.3278 16.4699C39.3364 16.3263 39.3165 16.1825 39.2694 16.0466C39.2223 15.9107 39.1489 15.7855 39.0533 15.678C38.9578 15.5705 38.8419 15.483 38.7125 15.4203C38.583 15.3576 38.4425 15.3211 38.2989 15.3128C38.1553 15.3046 38.0115 15.3247 37.8757 15.372C37.74 15.4194 37.6148 15.4931 37.5075 15.5889Z" fill="#1B6EF7"/>
<path d="M24.006 24.3907C24.61 24.3907 25.0997 23.9011 25.0997 23.297C25.0997 22.6929 24.61 22.2032 24.006 22.2032C23.4019 22.2032 22.9122 22.6929 22.9122 23.297C22.9122 23.9011 23.4019 24.3907 24.006 24.3907Z" fill="#1B6EF7"/>
<path d="M20.3645 27.6337C20.9686 27.6337 21.4583 27.144 21.4583 26.54C21.4583 25.9359 20.9686 25.4462 20.3645 25.4462C19.7604 25.4462 19.2708 25.9359 19.2708 26.54C19.2708 27.144 19.7604 27.6337 20.3645 27.6337Z" fill="#1B6EF7"/>
<path d="M17.6023 31.6522C18.2064 31.6522 18.696 31.1625 18.696 30.5584C18.696 29.9543 18.2064 29.4647 17.6023 29.4647C16.9982 29.4647 16.5085 29.9543 16.5085 30.5584C16.5085 31.1625 16.9982 31.6522 17.6023 31.6522Z" fill="#1B6EF7"/>
<path d="M47.6804 24.3907C48.2845 24.3907 48.7742 23.9011 48.7742 23.297C48.7742 22.6929 48.2845 22.2032 47.6804 22.2032C47.0764 22.2032 46.5867 22.6929 46.5867 23.297C46.5867 23.9011 47.0764 24.3907 47.6804 24.3907Z" fill="#1B6EF7"/>
<path d="M51.3219 27.6337C51.926 27.6337 52.4156 27.144 52.4156 26.54C52.4156 25.9359 51.926 25.4462 51.3219 25.4462C50.7178 25.4462 50.2281 25.9359 50.2281 26.54C50.2281 27.144 50.7178 27.6337 51.3219 27.6337Z" fill="#1B6EF7"/>
<path d="M54.0841 31.6522C54.6882 31.6522 55.1779 31.1625 55.1779 30.5584C55.1779 29.9543 54.6882 29.4647 54.0841 29.4647C53.48 29.4647 52.9904 29.9543 52.9904 30.5584C52.9904 31.1625 53.48 31.6522 54.0841 31.6522Z" fill="#1B6EF7"/>
<path d="M12.8047 50.7693V46.9412C12.8047 45.8534 12.3726 44.8101 11.6034 44.0409C10.8342 43.2717 9.79093 42.8396 8.70312 42.8396C7.61532 42.8396 6.57207 43.2717 5.80288 44.0409C5.03369 44.8101 4.60156 45.8534 4.60156 46.9412V50.7693C4.60156 51.8571 5.03369 52.9003 5.80288 53.6695C6.57207 54.4387 7.61532 54.8708 8.70312 54.8708C9.79093 54.8708 10.8342 54.4387 11.6034 53.6695C12.3726 52.9003 12.8047 51.8571 12.8047 50.7693ZM6.78906 50.7693V46.9412C6.78906 46.4335 6.99072 45.9467 7.34968 45.5877C7.70863 45.2288 8.19548 45.0271 8.70312 45.0271C9.21077 45.0271 9.69762 45.2288 10.0566 45.5877C10.4155 45.9467 10.6172 46.4335 10.6172 46.9412V50.7693C10.6172 51.2769 10.4155 51.7638 10.0566 52.1227C9.69762 52.4817 9.21077 52.6833 8.70312 52.6833C8.19548 52.6833 7.70863 52.4817 7.34968 52.1227C6.99072 51.7638 6.78906 51.2769 6.78906 50.7693Z" fill="#1B6EF7"/>
<path d="M62.2969 42.8396C61.2094 42.8408 60.1669 43.2733 59.3979 44.0422C58.629 44.8112 58.1965 45.8537 58.1953 46.9412V50.7693C58.1953 51.8571 58.6274 52.9003 59.3966 53.6695C60.1658 54.4387 61.2091 54.8708 62.2969 54.8708C63.3847 54.8708 64.4279 54.4387 65.1971 53.6695C65.9663 52.9003 66.3984 51.8571 66.3984 50.7693V46.9412C66.3973 45.8537 65.9647 44.8112 65.1958 44.0422C64.4269 43.2733 63.3843 42.8408 62.2969 42.8396ZM64.2109 50.7693C64.2109 51.2769 64.0093 51.7638 63.6503 52.1227C63.2914 52.4817 62.8045 52.6833 62.2969 52.6833C61.7892 52.6833 61.3024 52.4817 60.9434 52.1227C60.5845 51.7638 60.3828 51.2769 60.3828 50.7693V46.9412C60.3828 46.4335 60.5845 45.9467 60.9434 45.5877C61.3024 45.2288 61.7892 45.0271 62.2969 45.0271C62.8045 45.0271 63.2914 45.2288 63.6503 45.5877C64.0093 45.9467 64.2109 46.4335 64.2109 46.9412V50.7693Z" fill="#1B6EF7"/>
<path d="M10.732 34.0568C10.243 34.0492 9.75987 34.1638 9.32633 34.3901C8.89279 34.6165 8.52257 34.9474 8.24922 35.3529C8.01222 35.7318 7.88535 36.1692 7.88281 36.6162V40.7068C8.15461 40.6692 8.42874 40.6509 8.70312 40.6521C10.3704 40.6542 11.9689 41.3175 13.1479 42.4965C14.3268 43.6754 14.9901 45.2739 14.9922 46.9412V50.7693C14.9901 52.4366 14.3268 54.0351 13.1479 55.214C11.9689 56.393 10.3704 57.0563 8.70312 57.0584C8.42874 57.0596 8.15461 57.0413 7.88281 57.0037V60.3834C7.88281 61.9037 9.29922 62.9373 10.7266 62.9428C15.392 62.8674 26.9058 63.3947 34.4062 69.58V39.7503C25.1986 33.9445 14.7978 34.0307 10.732 34.0568Z" fill="#1B6EF7"/>
<path d="M56.0078 50.7693V46.9412C56.0095 45.9996 56.2222 45.0704 56.6303 44.2219C57.0384 43.3733 57.6314 42.627 58.3659 42.0379C59.1004 41.4487 59.9576 41.0317 60.8745 40.8174C61.7913 40.6032 62.7446 40.5971 63.6641 40.7998V36.6162C63.6641 35.1068 62.2313 34.0678 60.8148 34.0568C56.6737 34.0249 45.9379 33.9384 36.5938 40.1008V70C36.6579 69.9674 36.7184 69.9281 36.7742 69.8826C44.2609 63.4076 56.0898 62.8662 60.8203 62.9428C62.2586 62.9209 63.6641 61.9201 63.6641 60.3834V56.9107C62.7446 57.1134 61.7913 57.1074 60.8744 56.8931C59.9575 56.6789 59.1004 56.2618 58.3659 55.6727C57.6314 55.0835 57.0383 54.3372 56.6302 53.4887C56.2222 52.6401 56.0095 51.7109 56.0078 50.7693Z" fill="#1B6EF7"/>
</svg>
