<svg width="121" height="120" viewBox="0 0 121 120" fill="none" xmlns="http://www.w3.org/2000/svg">
<g clip-path="url(#clip0_1_1042)">
<path d="M120.472 111.489L111.044 59.5486C110.95 59.0302 110.629 58.5811 110.168 58.325L86.4394 45.1273C86.1314 44.9557 85.7862 44.8875 85.447 44.9138L89.764 100.603L89.6194 100.668L118.017 113.408C118.248 113.511 118.494 113.562 118.738 113.562C119.125 113.562 119.509 113.435 119.824 113.188C120.339 112.786 120.588 112.132 120.472 111.489Z" fill="#44C868"/>
<path d="M60.5001 57.7442L36.2317 45.1041C35.9408 44.9525 35.6183 44.8906 35.3008 44.9119C35.3849 44.9068 35.4695 44.9072 35.5534 44.9138L31.2365 100.603L59.7789 113.408C60.0093 113.511 60.2552 113.563 60.5001 113.563V57.7442Z" fill="#5CC16E"/>
<path d="M35.5532 44.914C35.214 44.8878 34.8688 44.956 34.5608 45.1273L10.8319 58.325C10.3712 58.5812 10.0496 59.03 9.95562 59.5487L0.528331 111.489C0.411612 112.131 0.660987 112.786 1.17591 113.189C1.49161 113.435 1.87482 113.563 2.26154 113.563C2.50599 113.563 2.75185 113.512 2.98271 113.408L31.2259 100.738L35.5532 44.914Z" fill="#AAE8B5"/>
<path d="M85.4467 44.9128C85.2133 44.9309 84.9825 44.993 84.7685 45.1046L60.5001 57.7444V113.563H60.5003C60.7452 113.563 60.9913 113.512 61.2215 113.408L89.7639 100.603L85.4467 44.9128Z" fill="#AAE8B5"/>
<path d="M7.09861 75.2891L5.18353 85.8405L33.5416 70.8625L34.1999 62.3689L34.3091 60.9603L7.09861 75.2891Z" fill="#FFDB56"/>
<path d="M33.7968 67.5691L33.5415 70.8625L5.1835 85.8405L0.528331 111.489C0.411612 112.132 0.660987 112.786 1.17591 113.189C1.49161 113.435 1.87482 113.563 2.26154 113.563C2.50599 113.563 2.75185 113.512 2.98271 113.408L31.2259 100.738L33.7968 67.5691Z" fill="#F8698B"/>
<path d="M60.5072 64.7064L34.3091 60.9603L33.5416 70.8625L60.5001 111.803V96.9159L44.4133 71.585L60.5072 73.51V64.7064Z" fill="#FFBB24"/>
<path d="M108.3 57.2863L96.9012 50.9462L86.1101 53.4676L86.2451 55.2104L86.7781 62.0856L108.3 57.2863Z" fill="#FFBB24"/>
<path d="M87.735 74.4321L86.7131 61.2487L86.1101 53.4677L60.5071 64.7064V73.51L77.2312 66.2374L87.735 74.4321Z" fill="#FFDB56"/>
<path d="M120.472 111.489L118.104 98.4421L86.7781 62.0856L87.7353 74.432L119.861 113.156C120.35 112.751 120.586 112.115 120.472 111.489Z" fill="#FFBB24"/>
<path d="M60.6128 6.43713C47.0277 6.43713 35.9753 17.4804 35.9753 31.0545C35.9753 39.4513 39.9618 48.4663 47.8244 57.8488C53.5991 64.7401 59.2954 69.1724 59.5352 69.3578C59.8525 69.6032 60.2327 69.7258 60.6131 69.7258C60.9932 69.7258 61.3736 69.6032 61.691 69.3578C61.9305 69.1724 67.627 64.7401 73.4018 57.8488C81.2644 48.4663 85.2508 39.4515 85.2508 31.0545C85.2504 17.4804 74.1979 6.43713 60.6128 6.43713ZM69.7371 31.0543C69.7371 36.0891 65.6519 40.171 60.6128 40.171C55.5738 40.171 51.4886 36.0894 51.4886 31.0543C51.4886 26.0192 55.5738 21.9376 60.6128 21.9376C65.6519 21.9376 69.7371 26.0194 69.7371 31.0543Z" fill="#F8698B"/>
<path d="M60.6128 6.43713C59.5361 6.43713 58.4756 6.50698 57.4349 6.64151C69.5247 8.20409 78.8948 18.5562 78.8948 31.0545C78.8948 39.4513 74.9083 48.4663 67.0457 57.8488C63.3321 62.2804 59.6535 65.6926 57.4352 67.615C58.6666 68.6819 59.4499 69.2917 59.5352 69.3578C59.8525 69.6032 60.2327 69.7258 60.6131 69.7258C60.9932 69.7258 61.3736 69.6032 61.691 69.3578C61.9305 69.1724 67.627 64.7401 73.4018 57.8488C81.2644 48.4663 85.2509 39.4515 85.2509 31.0545C85.2504 17.4804 74.1979 6.43713 60.6128 6.43713Z" fill="#F8698B"/>
<path d="M61.2215 113.408L71.8352 108.647L60.5001 96.9159V113.563H60.5004C60.7453 113.563 60.9911 113.512 61.2215 113.408Z" fill="#FFDB56"/>
<path d="M111.044 59.5487C110.95 59.0302 110.629 58.5812 110.168 58.325L108.3 57.286L86.7778 62.0853L118.104 98.4419L111.044 59.5487Z" fill="url(#paint0_linear_1_1042)"/>
<path d="M60.4999 113.563C60.5001 113.563 60.5001 113.563 60.4999 113.563V111.803L33.5416 70.8624L31.236 100.603L59.7785 113.408C60.0089 113.512 60.2548 113.563 60.4999 113.563Z" fill="url(#paint1_linear_1_1042)"/>
</g>
<defs>
<linearGradient id="paint0_linear_1_1042" x1="84.585" y1="49.878" x2="129.229" y2="90.8452" gradientUnits="userSpaceOnUse">
<stop stop-color="#1460F2"/>
<stop offset="1" stop-color="#1E75FA"/>
</linearGradient>
<linearGradient id="paint1_linear_1_1042" x1="29.1875" y1="63.1764" x2="74.8437" y2="100.9" gradientUnits="userSpaceOnUse">
<stop stop-color="#1460F2"/>
<stop offset="1" stop-color="#1E75FA"/>
</linearGradient>
<clipPath id="clip0_1_1042">
<rect width="120" height="120" fill="white" transform="translate(0.5)"/>
</clipPath>
</defs>
</svg>
