<svg width="119" height="116" viewBox="0 0 119 116" fill="none" xmlns="http://www.w3.org/2000/svg">
<path d="M86.8914 0.843734C84.7844 1.27967 82.3868 3.28983 81.7813 5.10623C81.5391 5.8328 81.3938 5.92967 80.6188 5.92967C78.5602 5.95389 76.6711 7.16483 75.5813 9.12655C74.9758 10.2164 74.8789 10.6765 74.9032 12.1055C74.9032 14.043 75.436 15.2781 76.7438 16.489C78.5602 18.2086 78.2453 18.1601 88.4414 18.1601C97.4024 18.1601 97.6688 18.1359 98.6133 17.6515C102.198 15.714 103.191 11.1125 100.672 8.06092C99.7516 6.94686 97.7414 5.92967 96.4336 5.92967C95.5133 5.92967 95.4164 5.85702 95.1258 5.03358C94.6657 3.7742 92.8735 1.9578 91.5172 1.37655C90.1125 0.771078 88.2961 0.577328 86.8914 0.843734ZM90.4274 3.72577C91.6383 4.2828 92.8735 5.88123 93.0672 7.18905C93.2852 8.39998 93.6727 8.69061 94.9563 8.52108C96.4094 8.32733 97.5235 8.69061 98.4922 9.68358C99.1461 10.3617 99.3157 10.7492 99.3883 11.7906C99.5094 13.2922 98.9766 14.3578 97.7172 15.1328C96.9664 15.593 96.4821 15.6172 88.4414 15.6172C80.4008 15.6172 79.9164 15.593 79.1657 15.1328C76.8407 13.7281 76.8649 10.7008 79.1899 8.98123C79.7469 8.56952 80.1828 8.47264 81.5391 8.52108C83.4039 8.56952 83.4766 8.52108 83.9368 6.89842C84.7844 3.91952 87.7149 2.51483 90.4274 3.72577Z" fill="#1B6EF7"/>
<path d="M12.9758 13.0258C10.9172 13.8008 9.41564 15.1813 8.64064 17.0703C8.44689 17.5547 8.18049 17.7969 7.81721 17.7969C6.65471 17.7969 4.69299 18.5719 3.77268 19.4195C0.478926 22.3984 1.20549 27.7508 5.10471 29.5672C6.33986 30.1484 6.3883 30.1484 15.3008 30.1484C24.2133 30.1484 24.2617 30.1484 25.4969 29.5672C28.5 28.1625 29.8321 24.2633 28.2821 21.2602C27.3375 19.3953 24.8188 17.7969 22.8086 17.7969C22.4453 17.7969 22.1789 17.5305 21.8883 16.8766C20.7742 14.382 18.5461 12.9047 15.6641 12.7836C14.5258 12.7352 13.5086 12.832 12.9758 13.0258ZM17.3836 15.7625C18.4008 16.2711 19.4906 17.7 19.9024 19.0563C20.0961 19.7344 20.411 20.3883 20.5563 20.5094C20.7258 20.6063 21.4766 20.6305 22.2031 20.5578C24.6977 20.3156 26.4414 21.9141 26.2719 24.2391C26.1508 25.7164 25.5696 26.5883 24.2375 27.2422C23.3172 27.7023 22.7844 27.7266 15.3008 27.7266C7.84143 27.7266 7.2844 27.7023 6.33986 27.2422C4.42658 26.3219 3.70002 23.8273 4.8383 22.132C5.66174 20.8969 6.7758 20.4125 8.39846 20.5578C9.12502 20.6305 9.8758 20.6063 10.0453 20.5094C10.1906 20.3883 10.5055 19.7344 10.6992 19.0563C11.0867 17.7727 12.1766 16.2953 13.0969 15.8109C14.3805 15.1086 16.0758 15.1086 17.3836 15.7625Z" fill="#1B6EF7"/>
<path d="M50.6602 29.107C38.2602 30.0758 35.5719 30.8508 32.3992 34.4351C31.7211 35.2101 28.4758 39.7633 25.2063 44.5586C21.9367 49.3539 18.9094 53.6406 18.4735 54.0765C17.0688 55.5781 16.1485 55.8929 12.3946 56.0867C10.2633 56.1836 8.56799 56.4015 7.79299 56.6679C4.37815 57.8547 1.66565 60.7367 0.793776 64.1758C0.236745 66.2101 0.236745 78.5617 0.769557 80.5961C1.61721 83.8898 3.60315 86.2875 6.67893 87.7648L8.51956 88.6367L15.5672 88.7093L22.6149 88.782L22.9297 89.7992C23.3899 91.4218 24.5282 93.214 25.9813 94.6672L27.3375 96.0234H18.4008C8.95549 96.0234 8.88284 96.0234 8.88284 97.1375C8.88284 98.4695 8.49534 98.4453 23.2688 98.4453C38.2602 98.4453 38.3086 98.4453 41.1906 96.9437C43.2977 95.8297 45.6227 93.3836 46.5914 91.3008C47.0031 90.3562 47.4149 89.4117 47.4875 89.1937C47.6086 88.782 48.6258 88.7578 64.586 88.7578C78.8508 88.7578 81.5391 88.8062 81.5391 89.0968C81.5391 89.9687 83.525 93.3351 84.8328 94.6429L86.2375 96.0234H75.1696C64.4891 96.0234 64.1016 96.0476 63.8594 96.4836C63.5203 97.1375 63.5446 97.6218 64.0047 98.0578C64.3438 98.3968 66.136 98.4453 80.0617 98.4453C93.1641 98.4453 95.9492 98.3968 97.1117 98.082C101.205 97.0164 104.523 94.0617 106 90.1867L106.533 88.8062L108.979 88.7093C111.934 88.5883 113.532 87.9828 115.445 86.1906C118.037 83.7687 118.763 80.8625 118.521 73.8633C118.23 65.7015 116.947 62.7711 112.248 59.5258C108.761 57.1039 105.007 55.6265 100.648 54.9484C97.9836 54.5367 96.6516 54.0039 95.5133 52.9383C95.1258 52.5992 91.8805 48.3125 88.3203 43.4445C84.5664 38.3343 81.2485 34.0718 80.5219 33.3937C78.1727 31.2625 76.1625 30.5601 70.2774 29.7851C64.4407 29.0586 55.3586 28.7195 50.6602 29.107ZM65.3125 31.8679C73.2078 32.4976 76.55 33.3211 78.7055 35.2343C79.2141 35.6703 82.5321 40.0054 86.0922 44.8976C89.6524 49.7656 93.0188 54.2218 93.6 54.7789C95.0532 56.1836 96.7727 56.9343 99.7031 57.3945C101.084 57.6367 103.021 58.0726 104.038 58.3875C107.986 59.6711 112.127 62.1656 113.702 64.2242L114.307 65.0234H110.045H105.782L104.959 65.75C103.53 66.9851 103.336 69.1648 104.498 70.7633C106.605 73.6695 110.844 76.0914 115.058 76.7695L115.978 76.9148L115.881 78.9008C115.639 83.4054 113.072 86.0211 108.64 86.2875L106.727 86.4086V84.9554C106.727 81.7586 105.516 79.0218 102.997 76.5031C100.381 73.8875 97.6203 72.7734 93.818 72.7734C87.1336 72.7734 81.7813 77.7867 81.1516 84.5922L80.9821 86.3359H64.4407H47.875V84.9312C47.875 81.8312 46.5914 78.9492 44.1453 76.5273C41.5297 73.9601 38.6719 72.7734 35.0391 72.7734C31.5031 72.7734 28.4516 74.0328 25.9328 76.5515C23.7047 78.7554 22.2032 82.2672 22.2032 85.1976V86.3601L15.8578 86.2875L9.48831 86.2148L7.96253 85.5125C6.04924 84.6164 4.28128 82.7515 3.57893 80.8625C3.28831 80.0875 2.99768 78.5859 2.90081 77.3508L2.75549 75.1953H5.61331C9.94846 75.1953 10.9172 74.5898 12.0313 71.2234C12.9032 68.5351 12.3219 66.4281 10.3844 65.2172C9.6094 64.7328 9.07659 64.6359 6.38831 64.539L3.31253 64.4179L3.7969 63.425C4.59612 61.8265 5.83128 60.5672 7.47815 59.6953C8.90706 58.9203 9.17346 58.8718 12.3946 58.7023C16.8508 58.4601 18.3766 57.9515 20.2172 56.1109C20.7016 55.6023 24.0438 50.9281 27.6282 45.6968C31.1883 40.4898 34.5547 35.8398 35.0633 35.3554C37.0735 33.539 39.1321 32.8851 44.8477 32.207C51.4594 31.4078 57.95 31.3109 65.3125 31.8679ZM37.025 75.4617C42.4258 76.6242 46.2039 82.025 45.2352 87.2078C44.436 91.5429 41.2875 94.7883 36.9766 95.6843C34.8938 96.1203 32.7383 95.8297 30.7039 94.8851C28.936 94.0375 26.611 91.7125 25.6907 89.8476C25.0367 88.4914 24.9883 88.2008 24.9883 85.6093C24.9883 82.9695 25.0367 82.7515 25.7633 81.2258C27.1438 78.4164 30.1953 76.0429 33.15 75.4617C34.6516 75.1468 35.5719 75.1711 37.025 75.4617ZM95.8766 75.4617C97.911 75.8976 99.7031 76.8664 101.18 78.3195C105.249 82.4125 105.298 88.6367 101.277 92.7781C96.2883 97.864 87.9571 96.4836 84.7602 90.0414C83.9852 88.4672 83.8641 87.9586 83.7672 86.1422C83.6946 84.4468 83.7672 83.7445 84.2032 82.4851C85.8985 77.4476 90.936 74.4203 95.8766 75.4617Z" fill="#1B6EF7"/>
<path d="M51.75 34.9195C44.9203 35.3797 40.1977 36.0336 38.793 36.7117C38.2359 36.9539 37.4609 37.5109 37.0492 37.9469C35.9352 39.1094 24.8672 55.3602 24.8672 55.8203C24.8672 56.0383 25.0609 56.4016 25.3031 56.6195C25.7148 56.9828 27.0711 57.0312 39.907 57.0312C50.6117 57.0312 54.1477 56.9586 54.3656 56.7406C54.5836 56.5227 54.6562 53.8102 54.6562 45.9875V35.5008L54.1234 35.1375C53.8328 34.9195 53.4211 34.7742 53.2031 34.7984C53.0094 34.8227 52.3555 34.8711 51.75 34.9195ZM52.2344 46.0117V54.6094H40.4883C29.3477 54.6094 28.7422 54.5852 28.9602 54.1734C29.0812 53.9555 31.3578 50.5891 33.9977 46.7383C37.9453 40.9984 39.0109 39.618 39.7859 39.182C40.9484 38.5523 46.8336 37.6805 51.5805 37.4383L52.2344 37.4141V46.0117Z" fill="#1B6EF7"/>
<path d="M60.275 35.2828C59.8633 35.6945 59.8633 56.3289 60.275 56.7406C60.493 56.9586 64.0532 57.0312 74.7821 57.0312C87.4 57.0312 89.0469 56.9828 89.386 56.6438C90.2094 55.8445 90.5969 56.45 80.9821 43.3477C79.1172 40.8289 77.325 38.4313 76.9618 38.068C75.5813 36.5664 73.6438 36.0094 67.3953 35.3555C63.1328 34.9195 60.6625 34.8953 60.275 35.2828Z" fill="#1B6EF7"/>
<path d="M25.3516 61.3906C24.7461 61.9961 24.7219 62.65 25.3032 63.1586C25.6665 63.4977 26.2961 63.5703 28.8149 63.5703C32.1086 63.5703 32.6172 63.4008 32.6172 62.2383C32.6172 61.1727 31.818 60.9063 28.6938 60.9063C26.1508 60.9063 25.7876 60.9547 25.3516 61.3906Z" fill="#1B6EF7"/>
<path d="M60.5172 61.2938C59.8875 61.7297 59.8149 62.65 60.3719 63.1828C60.6625 63.4977 61.3406 63.5703 63.8594 63.5703C66.911 63.5703 67.0078 63.5461 67.3953 62.9648C67.8797 62.2383 67.6375 61.4391 66.8383 61.1242C65.8211 60.7367 61.1469 60.8578 60.5172 61.2938Z" fill="#1B6EF7"/>
<path d="M33.0047 79.8937C29.5172 81.2015 28.0399 85.2703 29.8563 88.5398C30.7282 90.0656 32.5204 91.3007 34.2157 91.5671C36.5649 91.9062 39.0594 90.6953 40.2946 88.5882C40.8758 87.5953 40.9727 87.1593 40.9727 85.6093C40.9727 83.6476 40.6094 82.6789 39.4227 81.4195C37.9938 79.8453 35.0149 79.1429 33.0047 79.8937Z" fill="#1B6EF7"/>
<path d="M92.5587 79.7726C88.829 80.6929 86.9399 84.8343 88.6594 88.3703C90.5243 92.1968 95.7313 92.7781 98.5407 89.4843C102.27 85.1492 98.1047 78.4164 92.5587 79.7726Z" fill="#1B6EF7"/>
<path d="M27.5313 109.102C26.95 109.683 26.9258 110.022 27.4344 110.748C27.7977 111.281 27.8219 111.281 35.1602 111.281C42.4985 111.281 42.5227 111.281 42.886 110.748C43.3945 110.022 43.3703 109.683 42.7891 109.102C42.3289 108.641 41.9899 108.617 35.1602 108.617C28.3305 108.617 27.9914 108.641 27.5313 109.102Z" fill="#1B6EF7"/>
<path d="M69.4781 113.025C69.3086 113.195 69.1875 113.679 69.1875 114.115C69.1875 114.769 69.3086 114.963 69.8172 115.156C70.1562 115.302 73.0383 115.398 76.2352 115.398C81.7086 115.398 82.0477 115.374 82.5078 114.914C83.1133 114.309 83.1375 113.655 82.5562 113.146C82.1687 112.783 81.3453 112.734 75.9445 112.734C71.4641 112.734 69.6961 112.807 69.4781 113.025Z" fill="#1B6EF7"/>
</svg>
